<svg width="53" height="65" viewBox="0 0 53 65" fill="none" xmlns="http://www.w3.org/2000/svg">
    <path d="M36.7517 0.144043C37.7126 0.0410904 38.8261 0.241621 39.7517 0.504395C41.8458 1.09883 43.5466 2.37187 44.5564 4.18896C45.6058 6.05169 45.8072 8.22951 45.115 10.2319C44.2361 12.7012 42.3518 13.9423 39.9978 15.0835L40.0242 22.2856C41.7065 22.7636 43.3433 23.3054 44.8708 24.1304C48.3816 26.0265 50.783 29.2237 51.7898 32.8618C52.854 36.6769 52.2489 40.7309 50.1072 44.1313C48.1428 47.2135 45.0103 49.4898 41.2605 50.3618C36.3621 51.5022 32.208 50.2673 27.9978 47.9351C26.1368 49.7892 24.2979 51.6642 22.4832 53.5591C23.2945 55.3423 23.5632 57.213 23.0251 59.1079C22.4993 60.9605 21.1061 62.5474 19.324 63.4858C17.3271 64.5389 15.0523 64.7308 12.863 64.147C10.6904 63.5677 8.86434 62.3135 7.80249 60.4292C6.75748 58.5767 6.66893 56.4059 7.34644 54.4282C8.11731 52.1804 9.68772 50.7955 11.8953 49.7681C14.2712 48.9021 16.2352 49.1869 18.5544 49.9653C20.4855 48.072 22.3037 46.0833 24.2546 44.2065C22.1105 40.2888 21.4162 36.9514 22.531 32.6343C20.1036 31.5784 17.7627 30.3492 15.3337 29.2915C14.0359 30.5503 12.4497 31.4135 10.5867 31.7056C8.36493 32.0541 6.02227 31.4894 4.19604 30.2739C2.3867 29.0526 1.19637 27.1913 0.904053 25.1274C0.604021 23.1261 1.16903 20.9199 2.54468 19.3403C3.96323 17.7114 6.16552 16.7291 8.38843 16.5122C10.5725 16.3141 12.7514 16.9347 14.4431 18.2368C16.6062 19.9249 17.2306 22.023 17.4929 24.5239C19.7952 25.8392 22.4319 26.8535 24.8308 28.0278C27.9519 24.59 30.2319 23.5053 34.781 22.1987L34.7849 15.0513C33.9705 14.7476 33.1576 14.3781 32.448 13.8921C30.6532 12.655 29.4753 10.7914 29.1843 8.729C28.9152 6.6771 29.5362 4.60937 30.9109 2.98682C32.4133 1.23075 34.4221 0.43129 36.7517 0.144043ZM46.78 35.6997C46.3171 30.7827 41.6816 27.1368 36.4021 27.5366C31.075 27.9403 27.118 32.307 27.5847 37.2671C28.0517 42.229 32.7643 45.8876 38.0857 45.4214C43.3594 44.958 47.2428 40.6163 46.78 35.6997Z" fill="black"/>
</svg>