<svg xmlns="http://www.w3.org/2000/svg" aria-hidden="true" style="position:absolute;width:0;height:0;overflow:hidden">
    <defs>
        <symbol id="icon-caretRight" viewBox="0 0 31 32">
            <path d="M11.52 24.96 21.76 16 11.52 7.04v17.92z" />
        </symbol>
        <symbol id="icon-downArrow" viewBox="0 0 31 32">
            <path
        d="m23.945 16.611-1.81-1.81-5.495 5.495V8.026h-2.56v12.27l-5.495-5.495-1.81 1.81 8.585 8.585 8.585-8.585z" />
        </symbol>
        <symbol id="icon-Facebook" viewBox="0 0 31 32">
            <path
        d="M28.16 16.51c0-7.112-5.731-12.878-12.8-12.878S2.56 9.398 2.56 16.51c0 6.428 4.681 11.756 10.8 12.722v-8.999h-3.25V16.51h3.25v-2.837c0-3.228 1.911-5.01 4.835-5.01 1.401 0 2.865.252 2.865.252v3.169h-1.614c-1.59 0-2.086.993-2.086 2.011v2.416h3.55l-.567 3.723H17.36v8.999c6.119-.966 10.8-6.294 10.8-12.722z" />
        </symbol>
        <symbol id="icon-Instagram" viewBox="0 0 31 32">
            <path
        d="M15.358 6.676c3.078 0 3.442.014 4.652.068 1.125.05 1.732.238 2.137.396.536.207.922.459 1.323.86.405.405.652.788.864 1.323.158.405.346 1.017.396 2.137.054 1.215.068 1.579.068 4.653s-.014 3.442-.068 4.653c-.05 1.125-.238 1.732-.396 2.137a3.558 3.558 0 0 1-.86 1.323 3.62 3.62 0 0 1-1.323.864c-.405.158-1.017.346-2.137.396-1.215.054-1.58.068-4.653.068s-3.442-.014-4.653-.068c-1.125-.05-1.732-.238-2.137-.396a3.558 3.558 0 0 1-1.323-.86 3.625 3.625 0 0 1-.864-1.322c-.158-.405-.346-1.017-.396-2.137-.054-1.215-.068-1.579-.068-4.653s.014-3.442.068-4.653c.05-1.125.238-1.732.396-2.137.207-.536.459-.922.86-1.323a3.62 3.62 0 0 1 1.323-.864c.405-.158 1.017-.346 2.137-.396 1.21-.054 1.575-.068 4.653-.068h.001zm0-2.074c-3.127 0-3.518.014-4.747.068-1.224.054-2.065.252-2.794.536a5.609 5.609 0 0 0-2.042 1.332 5.636 5.636 0 0 0-1.332 2.038c-.284.734-.482 1.57-.536 2.794-.054 1.233-.068 1.624-.068 4.751s.014 3.518.068 4.747c.054 1.224.252 2.065.536 2.794.297.76.688 1.404 1.332 2.042a5.637 5.637 0 0 0 2.038 1.328c.734.284 1.57.482 2.794.536 1.228.054 1.62.068 4.747.068s3.519-.014 4.747-.068c1.224-.054 2.065-.252 2.794-.536.756-.292 1.4-.688 2.038-1.328s1.035-1.282 1.328-2.038c.284-.734.482-1.57.536-2.794.054-1.228.068-1.62.068-4.747s-.014-3.518-.068-4.747c-.054-1.224-.252-2.065-.536-2.794a5.405 5.405 0 0 0-1.318-2.047 5.621 5.621 0 0 0-2.038-1.327c-.734-.284-1.57-.482-2.794-.536-1.233-.058-1.624-.072-4.751-.072l-.001.001z" />
            <path
        d="M15.358 10.204a5.918 5.918 0 1 0 5.917 5.917 5.918 5.918 0 0 0-5.917-5.917zm0 9.754a3.838 3.838 0 1 1 0-7.676 3.838 3.838 0 0 1 0 7.676zm7.531-9.988a1.38 1.38 0 1 1-2.761 0 1.38 1.38 0 0 1 2.761 0z" />
        </symbol>
        <symbol id="icon-iconBurgerMenu" viewBox="0 0 32 32">
            <path d="M5.333 8h21.333v2.667H5.333V8zm5.334 6.667h16v2.667h-16v-2.667zm6.666 6.666h9.333V24h-9.333v-2.667z" />
        </symbol>
        <symbol id="icon-iconClose" viewBox="0 0 32 32">
            <path
        d="m21.589 8.459-5.657 5.656-5.656-5.656-1.885 1.885L14.047 16l-5.656 5.656 1.885 1.885 5.656-5.656 5.657 5.656 1.885-1.885L17.818 16l5.656-5.656-1.885-1.885z" />
        </symbol>
        <symbol id="icon-Youtube" viewBox="0 0 31 32">
            <path
        d="M27.639 9.981a3.199 3.199 0 0 0-2.255-2.261c-2.004-.55-10.024-.559-10.024-.559s-8.018-.009-10.024.517a3.272 3.272 0 0 0-2.261 2.275c-.529 2.004-.534 6.162-.534 6.162s-.005 4.178.52 6.162a3.204 3.204 0 0 0 2.257 2.259c2.025.55 10.022.559 10.022.559s8.019.009 10.024-.516a3.221 3.221 0 0 0 2.262-2.257c.53-2.003.534-6.159.534-6.159s.026-4.179-.521-6.184zm-14.844 9.987.006-7.68 6.665 3.846-6.671 3.834z" />
        </symbol>
        <symbol id="icon-play" viewBox="0 0 15 20">
            <path
        d="M0.536006 19.886C0.697771 19.9702 0.879397 20.0087 1.06139 19.9974C1.24338 19.9861 1.41886 19.9255 1.56901 19.822L14.569 10.822C14.7018 10.73 14.8104 10.6071 14.8854 10.464C14.9604 10.3208 14.9995 10.1616 14.9995 10C14.9995 9.83842 14.9604 9.67923 14.8854 9.53607C14.8104 9.39291 14.7018 9.27006 14.569 9.17803L1.56901 0.178027C1.41915 0.0734818 1.24346 0.0120856 1.0611 0.000532371C0.878744 -0.0110209 0.696714 0.0277122 0.534858 0.112509C0.373002 0.197305 0.237532 0.32491 0.143218 0.481412C0.0489047 0.637914 -0.000633163 0.817305 6.10981e-06 1.00003V19C-2.39712e-05 19.1826 0.0499091 19.3616 0.144393 19.5178C0.238878 19.674 0.374308 19.8013 0.536006 19.886ZM2.00001 2.90903L12.243 10L2.00001 17.091V2.90903Z"
        fill="white"
        />
        </symbol>
    </defs>
</svg>