<svg xmlns="http://www.w3.org/2000/svg" aria-hidden="true" style="position:absolute;width:0;height:0;overflow:hidden">
  <defs>
    <!-- arrows -->
    <symbol id="icon-caret-right" viewBox="0 0 31 32">
      <path d="M11.52 24.96 21.76 16 11.52 7.04v17.92z" />
    </symbol>
    <symbol id="icon-down-arrow" viewBox="0 0 31 32">
      <path d="m23.945 16.611-1.81-1.81-5.495 5.495V8.026h-2.56v12.27l-5.495-5.495-1.81 1.81 8.585 8.585 8.585-8.585z" />
    </symbol>
    <symbol id="icon-left-arrow" viewBox="0 0 32 32">
      <path d="m19.902 28.098-9.813-9.813H32v-4.571H10.089l9.813-9.813L16.67.669 1.34 15.999l15.33 15.33 3.232-3.232z" />
    </symbol>

    <!-- burger/close -->
    <symbol id="icon-burger" viewBox="0 0 32 32">
      <path d="M5.333 8h21.333v2.667H5.333V8zm5.334 6.667h16v2.667h-16v-2.667zm6.666 6.666h9.333V24h-9.333v-2.667z" />
    </symbol>
    <symbol id="icon-close" viewBox="0 0 32 32">
      <path d="m21.589 8.459-5.657 5.656-5.656-5.656-1.885 1.885L14.047 16l-5.656 5.656 1.885 1.885 5.656-5.656 5.657 5.656 1.885-1.885L17.818 16l5.656-5.656-1.885-1.885z" />
    </symbol>

    <!-- social icons -->
    <symbol id="icon-facebook" viewBox="0 0 31 32">
      <path d="M28.16 16.51c0-7.112-5.731-12.878-12.8-12.878S2.56 9.398 2.56 16.51c0 6.428 4.681 11.756 10.8 12.722v-8.999h-3.25V16.51h3.25v-2.837c0-3.228 1.911-5.01 4.835-5.01 1.401 0 2.865.252 2.865.252v3.169h-1.614c-1.59 0-2.086.993-2.086 2.011v2.416h3.55l-.567 3.723H17.36v8.999c6.119-.966 10.8-6.294 10.8-12.722z" />
    </symbol>
    <symbol id="icon-instagram" viewBox="0 0 31 32">
      <path d="M15.358 6.676c3.078 0 3.442.014 4.652.068 1.125.05 1.732.238 2.137.396.536.207.922.459 1.323.86.405.405.652.788.864 1.323.158.405.346 1.017.396 2.137.054 1.215.068 1.579.068 4.653s-.014 3.442-.068 4.653c-.05 1.125-.238 1.732-.396 2.137a3.558 3.558 0 0 1-.86 1.323 3.62 3.62 0 0 1-1.323.864c-.405.158-1.017.346-2.137.396-1.215.054-1.58.068-4.653.068s-3.442-.014-4.653-.068c-1.125-.05-1.732-.238-2.137-.396a3.558 3.558 0 0 1-1.323-.86 3.625 3.625 0 0 1-.864-1.322c-.158-.405-.346-1.017-.396-2.137-.054-1.215-.068-1.579-.068-4.653s.014-3.442.068-4.653c.05-1.125.238-1.732.396-2.137.207-.536.459-.922.86-1.323a3.62 3.62 0 0 1 1.323-.864c.405-.158 1.017-.346 2.137-.396 1.21-.054 1.575-.068 4.653-.068z" />
      <path d="M15.358 10.204a5.918 5.918 0 1 0 5.917 5.917 5.918 5.918 0 0 0-5.917-5.917zm0 9.754a3.838 3.838 0 1 1 0-7.676 3.838 3.838 0 0 1 0 7.676zm7.531-9.988a1.38 1.38 0 1 1-2.761 0 1.38 1.38 0 0 1 2.761 0z" />
    </symbol>
    <symbol id="icon-youtube" viewBox="0 0 31 32">
      <path d="M27.639 9.981a3.199 3.199 0 0 0-2.255-2.261c-2.004-.55-10.024-.559-10.024-.559s-8.018-.009-10.024.517a3.272 3.272 0 0 0-2.261 2.275c-.529 2.004-.534 6.162-.534 6.162s-.005 4.178.52 6.162a3.204 3.204 0 0 0 2.257 2.259c2.025.55 10.022.559 10.022.559s8.019.009 10.024-.516a3.221 3.221 0 0 0 2.262-2.257c.53-2.003.534-6.159.534-6.159s.026-4.179-.521-6.184zm-14.844 9.987.006-7.68 6.665 3.846-6.671 3.834z" />
    </symbol>

    <!-- media -->
    <symbol id="icon-play" viewBox="0 0 15 20">
      <path d="M0.536 19.886c.162.084.344.123.526.111.182-.011.357-.072.507-.175L14.569 10.822a.953.953 0 0 0 .316-1.286.947.947 0 0 0-.316-.358L1.569.178A.945.945 0 0 0 .535.113.963.963 0 0 0 0 1v18c0 .183.05.362.144.518.094.156.23.283.392.368zm1.464-16.977L12.243 10 2 17.091V2.909z" fill="white"/>
    </symbol>
  </defs>
</svg>
